# xmcd CD database file
#
# Track frame offsets:
#	150
#	11885
#	27594
#	42487
#	55374
#	69299
#	84475
#	97758
#	116952
#	131747
#	142606
#	156233
#	172415
#	187448
#	202260
#	223765
#	238496
#
# Disc length: 3380 seconds
#
# Revision: 0
# Processed by: cddbd v1.5.2PL0 Copyright (c) Steve Scherf et al.
# Submitted via: CDex 1.70beta2
#
DISCID=100d3211
DTITLE=Essentiel Country - essentiel Country
DYEAR=1900
DGENRE=Country
TTITLE0=Ring of fire - Johnny Cash
TTITLE1=Simple life - Ricky Skaggs
TTITLE2=I will always love you - Dolly Parton
TTITLE3=Here we are - George Jones et Emmylou Harris
TTITLE4=My heroes have always been cowboys - Willie Nelson
TTITLE5=Making belive - Merle Haggard
TTITLE6=Behind closed doors - Charlie Rich
TTITLE7=From a distance - Judy Collins
TTITLE8=I could'nt leave you if I tried - Rodney Crowell
TTITLE9=Silver threads and golden Needles
TTITLE10=The Highwayman
TTITLE11=Jolene - Dolly Parton
TTITLE12=Life turned her that way - Ricky van Shelton
TTITLE13=Where the Tall Grass Grows - Vern Gosdin
TTITLE14=Pancho and Lefty - Merle Haggard
TTITLE15=Come se Dice - Sweethearts of rodeo
TTITLE16=Tahitian Skies- Chet Atkins - Knopfler
EXTD=
EXTT0=
EXTT1=
EXTT2=
EXTT3=
EXTT4=
EXTT5=
EXTT6=
EXTT7=
EXTT8=
EXTT9=
EXTT10=
EXTT11=
EXTT12=
EXTT13=
EXTT14=
EXTT15=
EXTT16=
PLAYORDER=
